<svg width="281" height="178" viewBox="0 0 281 178" fill="none" xmlns="http://www.w3.org/2000/svg">
<path d="M274.341 35.2401C267.31 21.0071 251.871 10.3042 236.845 13.5877C227.847 15.5541 218.904 22.15 210.278 18.8387C204.06 16.4514 200.55 9.68263 195.323 5.43656C187.278 -1.10004 175.859 -1.02385 166.053 1.90522C156.249 4.8343 147.274 10.2196 137.587 13.549C121.079 19.2233 108.688 28.5245 92.5626 21.7581C85.4833 18.7879 78.8576 14.6894 71.6515 12.0735C64.4454 9.4589 56.2716 8.44304 49.3153 11.7132C42.359 14.9833 37.3671 23.5371 39.7816 31.0847C40.2631 32.5904 41.0184 34.0731 40.9195 35.6561C40.7614 38.1946 30.4534 38.6744 28.0739 39.2392C25.6956 39.8039 23.216 39.4351 20.7773 39.4992C9.83308 39.7882 0.0520179 50.2008 0.000132203 61.6172C-0.043307 71.0841 13.513 80.7847 18.2997 88.8282C23.0865 96.8728 21.3561 96.608 18.5048 105.597C16.8143 110.927 12.8469 115.097 10.2478 120.013C3.50988 132.759 7.11171 149.634 16.5199 160.385C25.9281 171.136 40.0169 176.397 53.9223 177.65C67.8276 178.903 81.7728 176.55 95.5515 174.227C109.33 171.903 123.286 169.592 137.184 170.923L136.437 170.5C163.591 177.495 191.995 179.175 219.732 175.426C225.538 174.641 232.205 172.953 234.66 167.409C236.731 162.729 234.871 157.242 235.298 152.106C235.912 144.704 241.238 138.642 247.046 134.338C252.853 130.035 259.442 126.832 264.674 121.789C274.908 111.926 278.382 96.6588 279.909 82.2129C281.59 66.2989 281.374 49.4719 274.342 35.2389L274.341 35.2401Z" fill="#E7F1FF"/>
<path d="M257.372 161.224H165.205C161.836 161.224 159.099 158.554 159.076 155.246L158.131 17.9655C158.109 14.7111 160.725 12.0287 164.037 11.9102L257.149 8.57356C260.619 8.44899 263.501 11.1785 263.501 14.5877V155.206C263.501 158.53 260.757 161.224 257.372 161.224Z" fill="#002966"/>
<path d="M251.01 19.6791H169.556C168.324 19.6791 167.325 20.6803 167.325 21.9152V154.203C167.325 155.438 168.324 156.439 169.556 156.439H251.01C252.243 156.439 253.241 155.438 253.241 154.203V21.9152C253.241 20.6803 252.243 19.6791 251.01 19.6791Z" fill="#246AD2"/>
<path d="M214.37 15.6495H200.043C199.396 15.6495 198.872 15.1343 198.872 14.4982C198.872 13.8766 199.375 13.3675 200.007 13.3481L214.334 12.9152C214.995 12.8946 215.541 13.4158 215.541 14.0653V14.4982C215.541 15.1343 215.016 15.6495 214.37 15.6495Z" fill="#495C7A"/>
<path d="M206.549 53.6804H177.457C176.819 53.6804 176.301 53.1724 176.301 52.5448V29.6298C176.301 29.0033 176.819 28.4942 177.457 28.4942H206.549C207.188 28.4942 207.705 29.0021 207.705 29.6298V52.5448C207.705 53.1712 207.188 53.6804 206.549 53.6804Z" fill="#67A3FD" fill-opacity="0.5"/>
<path d="M244.52 53.6804H215.428C214.79 53.6804 214.272 53.1724 214.272 52.5448V29.6298C214.272 29.0033 214.79 28.4942 215.428 28.4942H244.52C245.158 28.4942 245.676 29.0021 245.676 29.6298V52.5448C245.676 53.1712 245.158 53.6804 244.52 53.6804Z" fill="#67A3FD"/>
<path d="M206.549 83.3992H177.457C176.819 83.3992 176.301 82.8913 176.301 82.2636V59.3486C176.301 58.7222 176.819 58.213 177.457 58.213H206.549C207.188 58.213 207.705 58.721 207.705 59.3486V82.2636C207.705 82.8901 207.188 83.3992 206.549 83.3992Z" fill="#67A3FD"/>
<path d="M244.52 83.3992H215.428C214.79 83.3992 214.272 82.8913 214.272 82.2636V59.3486C214.272 58.7222 214.79 58.213 215.428 58.213H244.52C245.158 58.213 245.676 58.721 245.676 59.3486V82.2636C245.676 82.8901 245.158 83.3992 244.52 83.3992Z" fill="#67A3FD" fill-opacity="0.5"/>
<path d="M243.368 96.4954H177.455C176.251 96.4954 175.274 95.5364 175.274 94.3548C175.274 93.1721 176.251 92.2143 177.455 92.2143H243.368C244.572 92.2143 245.548 93.1733 245.548 94.3548C245.548 95.5376 244.572 96.4954 243.368 96.4954Z" fill="#67A3FD"/>
<path d="M243.368 102.541H177.455C176.251 102.541 175.274 101.582 175.274 100.4C175.274 99.2177 176.251 98.2599 177.455 98.2599H243.368C244.572 98.2599 245.548 99.2189 245.548 100.4C245.548 101.583 244.572 102.541 243.368 102.541Z" fill="#67A3FD"/>
<path d="M243.368 108.585H177.455C176.251 108.585 175.274 107.626 175.274 106.445C175.274 105.262 176.251 104.304 177.455 104.304H243.368C244.572 104.304 245.548 105.263 245.548 106.445C245.548 107.628 244.572 108.585 243.368 108.585Z" fill="#67A3FD"/>
<path d="M245.547 115.133H198.485V117.801H245.547V115.133Z" fill="#67A3FD"/>
<path d="M245.547 118.9H198.485V121.568H245.547V118.9Z" fill="#67A3FD"/>
<path d="M245.547 122.666H198.485V125.334H245.547V122.666Z" fill="#67A3FD"/>
<path d="M122.853 65.9082L21.0035 67.4888C18.5782 67.5263 16.6379 65.445 16.8792 63.0263C17.3052 58.7439 19.465 52.8822 27.9924 52.2932C41.5768 51.3547 122.853 65.9082 122.853 65.9082Z" fill="#CA4B3F"/>
<path d="M133.861 51.9352L27.9922 52.4045C27.9922 52.4045 42.5142 50.2917 51.1803 75.8794C59.8464 101.467 67.8102 170.953 109.97 175.884C152.131 180.813 162.437 166.964 162.437 166.964H196.165C196.165 166.964 176.021 156.635 167.823 118.37C159.625 80.1061 153.535 53.8134 133.861 51.9352Z" fill="#FF7D72"/>
<path d="M49.0787 56.9251C48.4066 56.1196 48.993 54.8945 50.0404 54.9066L131.987 55.8137C131.987 55.8137 144.869 55.8137 157.049 100.885C169.229 145.957 172.742 159.573 189.841 169.433L128.644 175.757C128.644 175.757 100.602 180.467 82.0985 148.776C64.2909 118.277 64.4888 75.3836 49.0799 56.9251H49.0787Z" fill="#B8D4FF"/>
<path d="M132.724 63.3262H63.5642C63.0055 63.3262 62.4915 63.019 62.2273 62.5256L62.2224 62.5172C61.6782 61.5037 62.4107 60.2738 63.5594 60.2738H132.719C133.278 60.2738 133.792 60.581 134.056 61.0744L134.061 61.0829C134.605 62.0963 133.873 63.3262 132.724 63.3262Z" fill="white" fill-opacity="0.8"/>
<path d="M135.3 70.8376H66.1404C65.5817 70.8376 65.0677 70.5304 64.8034 70.037L64.7986 70.0285C64.2544 69.0151 64.9868 67.7851 66.1356 67.7851H135.296C135.854 67.7851 136.368 68.0923 136.633 68.5857L136.637 68.5942C137.182 69.6077 136.449 70.8376 135.3 70.8376Z" fill="white" fill-opacity="0.8"/>
<path d="M114.207 78.5727L68.7132 78.355C68.157 78.3525 67.6466 78.0454 67.3835 77.5544C66.8369 76.5373 67.5754 75.305 68.7277 75.311L114.222 75.5287C114.778 75.5311 115.289 75.8383 115.552 76.3293C116.098 77.3464 115.36 78.5787 114.207 78.5727Z" fill="white" fill-opacity="0.8"/>
<path d="M148.361 152.004L246.447 150.244C248.454 150.208 250.089 151.838 250.072 153.851C250.02 160.373 247.344 173.62 227.082 176.946H124.178C124.178 176.946 142.486 174.608 144.868 155.17C145.086 153.39 146.571 152.037 148.361 152.004Z" fill="#DE5C50"/>
<path d="M243.031 158.897C243.556 157.675 242.647 156.318 241.319 156.348L153.248 158.364C152.361 158.385 151.631 159.044 151.49 159.922C150.381 166.788 144.951 173.289 141.35 176.946H222.856C235.973 171.892 241.177 163.221 243.031 158.897Z" fill="#B8D4FF"/>
<path opacity="0.32" d="M79.3365 155.568L160.424 86.9076C155.534 69.546 149.722 57.5588 139.873 53.4215L60.6733 111.257C64.9678 126.618 70.6463 143.07 79.3365 155.568Z" fill="white"/>
<path opacity="0.32" d="M162.796 95.9838L84.8628 162.487C87.5536 165.39 90.4894 167.93 93.7003 170.008L166.341 111.5C165.152 106.031 163.986 100.847 162.796 95.9838Z" fill="white"/>
<path d="M169.918 98.1256L218.793 115.954C220.844 116.701 221.823 119.042 220.921 121.031L220.772 121.357C219.974 123.118 217.897 123.891 216.145 123.078L168.688 101.075L169.918 98.1244V98.1256Z" fill="#103061"/>
<path opacity="0.15" d="M147.453 111.147C160.778 111.147 171.58 100.515 171.58 87.401C171.58 74.2865 160.778 63.6552 147.453 63.6552C134.128 63.6552 123.326 74.2865 123.326 87.401C123.326 100.515 134.128 111.147 147.453 111.147Z" fill="white"/>
<path d="M120.605 87.401C120.605 101.993 132.624 113.823 147.453 113.823C162.281 113.823 174.301 101.993 174.301 87.401C174.301 72.8088 162.281 60.9789 147.453 60.9789C132.624 60.9789 120.605 72.8088 120.605 87.401ZM124.548 87.401C124.548 74.9518 134.802 64.8597 147.452 64.8597C160.101 64.8597 170.355 74.9518 170.355 87.401C170.355 99.8502 160.101 109.942 147.452 109.942C134.802 109.942 124.548 99.8502 124.548 87.401Z" fill="#103061"/>
<path d="M172.259 90.6723C172.252 90.6723 172.243 90.6723 172.236 90.6711C172.138 90.659 172.07 90.5683 172.082 90.4704C172.16 89.8536 172.216 89.2259 172.246 88.6031C172.251 88.5039 172.328 88.4277 172.433 88.4338C172.532 88.4386 172.608 88.5233 172.602 88.6212C172.57 89.2525 172.515 89.8899 172.435 90.5151C172.423 90.6058 172.347 90.6711 172.258 90.6711L172.259 90.6723ZM172.075 83.2843C171.99 83.2843 171.914 83.2239 171.898 83.1368C171.599 81.463 171.119 79.8159 170.471 78.2425C166.657 68.9679 157.621 62.9743 147.452 62.9743C142.71 62.9743 138.1 64.2949 134.121 66.7923C134.037 66.8443 133.926 66.8189 133.875 66.7354C133.823 66.652 133.848 66.5407 133.931 66.4887C137.968 63.9551 142.643 62.6163 147.452 62.6163C157.766 62.6163 166.931 68.697 170.802 78.1058C171.458 79.7034 171.945 81.3747 172.249 83.0739C172.266 83.1707 172.202 83.2638 172.105 83.2819C172.094 83.2843 172.083 83.2843 172.073 83.2843H172.075Z" fill="#67A3FD"/>
<path d="M217.829 122.393C217.755 122.393 217.686 122.347 217.66 122.272C217.628 122.179 217.677 122.076 217.77 122.044C219.15 121.567 219.872 120.793 219.918 119.744C219.964 118.682 219.294 117.696 218.25 117.287L212.382 114.994C212.291 114.958 212.245 114.855 212.281 114.762C212.317 114.67 212.421 114.624 212.513 114.66L218.382 116.953C219.568 117.416 220.329 118.545 220.276 119.759C220.24 120.59 219.796 121.72 217.888 122.382C217.869 122.388 217.85 122.391 217.83 122.391L217.829 122.393Z" fill="#67A3FD"/>
<path d="M210.639 114.3C210.617 114.3 210.595 114.296 210.574 114.288L209.813 113.99C209.722 113.954 209.676 113.851 209.712 113.758C209.748 113.666 209.852 113.62 209.944 113.656L210.704 113.954C210.796 113.99 210.842 114.093 210.805 114.186C210.778 114.257 210.71 114.3 210.639 114.3Z" fill="#67A3FD"/>
<path d="M38.6281 106.793C38.6209 107.834 37.7738 108.672 36.7361 108.665C35.6972 108.658 34.861 107.809 34.8682 106.769C34.8755 105.728 35.7225 104.89 36.7602 104.897C37.7991 104.904 38.6354 105.753 38.6281 106.793Z" fill="#246AD2"/>
<path d="M38.5656 106.793C38.5596 107.799 37.7403 108.61 36.7363 108.602C35.7324 108.595 34.924 107.775 34.9312 106.769C34.9384 105.763 35.7565 104.952 36.7605 104.96C37.7644 104.966 38.5729 105.787 38.5656 106.793Z" fill="#246AD2"/>
<path d="M38.6281 118.217C38.6209 119.258 37.7738 120.096 36.7361 120.089C35.6972 120.082 34.861 119.233 34.8682 118.193C34.8755 117.151 35.7225 116.313 36.7602 116.321C37.7991 116.328 38.6354 117.177 38.6281 118.217Z" fill="#246AD2"/>
<path d="M38.5656 118.217C38.5596 119.223 37.7403 120.033 36.7363 120.026C35.7324 120.019 34.924 119.199 34.9312 118.193C34.9384 117.186 35.7565 116.376 36.7605 116.383C37.7644 116.389 38.5729 117.211 38.5656 118.217Z" fill="#246AD2"/>
<path d="M38.6281 129.64C38.6209 130.682 37.7738 131.52 36.7361 131.513C35.6972 131.505 34.861 130.656 34.8682 129.616C34.8755 128.575 35.7225 127.737 36.7602 127.744C37.7991 127.751 38.6354 128.6 38.6281 129.64Z" fill="#246AD2"/>
<path d="M38.5656 129.64C38.5596 130.647 37.7403 131.457 36.7363 131.45C35.7324 131.442 34.924 130.622 34.9312 129.616C34.9384 128.61 35.7565 127.8 36.7605 127.807C37.7644 127.813 38.5729 128.634 38.5656 129.64Z" fill="#246AD2"/>
<path d="M41.5206 106.695L41.529 107.016C41.5519 107.884 42.0937 108.575 42.7562 108.577L93.1143 108.653C93.7972 108.657 94.3523 107.929 94.3511 107.031C94.3511 106.151 93.8141 105.434 93.1432 105.416L42.7755 105.018C42.0684 104.998 41.494 105.765 41.5194 106.694L41.5206 106.695Z" fill="#246AD2"/>
<path d="M41.5206 118.063L41.529 118.384C41.5519 119.252 42.0937 119.941 42.7562 119.945L93.1143 120.021C93.7972 120.025 94.3523 119.297 94.3511 118.399C94.3511 117.519 93.8141 116.802 93.1432 116.784L42.7755 116.386C42.0684 116.368 41.494 117.133 41.5194 118.062L41.5206 118.063Z" fill="#246AD2"/>
<path d="M41.5206 129.431L41.529 129.752C41.5519 130.62 42.0937 131.309 42.7562 131.313L93.1143 131.389C93.7972 131.393 94.3523 130.665 94.3511 129.767C94.3511 128.887 93.8141 128.17 93.1432 128.152L42.7755 127.754C42.0684 127.734 41.494 128.501 41.5194 129.43L41.5206 129.431Z" fill="#246AD2"/>
</svg>
